<svg xmlns="http://www.w3.org/2000/svg" viewBox="0 0 448 512">
<path fill="#3a3a3a" d="M224,202.66A53.34,53.34,0,1,0,277.34,256,53.38,53.38,0,0,0,224,202.66Zm124.71-41a54,54,0,0,0-30.52-30.52C294.18,123,224,120,224,120s-70.18,3-94.18,11.11a54,54,0,0,0-30.52,30.52C87,181.82,84,224,84,224s3,42.18,11.11,66.18a54,54,0,0,0,30.52,30.52C153.82,349,224,352,224,352s70.18-3,94.18-11.11a54,54,0,0,0,30.52-30.52C361,266.18,364,224,364,224S361,181.82,348.71,161.66ZM224,338a114,114,0,1,1,114-114A114.14,114.14,0,0,1,224,338Zm130.56-184.44a26.7,26.7,0,1,1-26.7-26.7A26.69,26.69,0,0,1,354.56,153.56Z"/>
</svg>