<svg xmlns="http://www.w3.org/2000/svg" viewBox="0 0 448 512"><path fill="#3a3a3a" d="M380.9 97.1C339 55.3 283.2 32 224.1 32c-117.4 0-213 95.6-213 213 0 37.5 9.8 74.1 28.5 106.5L0 480l131.8-38.6c30.9 16.9 65.6 25.9 101.2 25.9h.1c117.3 0 213-95.6 213-213 0-59.1-23.3-114.9-65.2-156.8zM224.1 438c-29.6 0-58.6-8-83.8-23.1l-6-3.6-77.9 22.8 23.2-75.8-3.9-6.1c-17.8-28-27.2-60.4-27.2-93.7 0-97 79-176 176-176 47 0 91.2 18.3 124.4 51.5s51.5 77.4 51.5 124.4c0 97.1-79 176-176.1 176zm101.5-138.4c-5.5-2.8-32.6-16.1-37.7-17.9-5.1-1.9-8.8-2.8-12.5 2.8-3.7 5.6-14.3 17.9-17.5 21.6-3.2 3.7-6.5 4.2-12 1.4s-23.4-8.6-44.6-27.4c-16.5-14.7-27.6-32.8-30.8-38.3s-.3-8.6 2.5-11.3c2.6-2.6 5.8-6.8 8.7-10.2s3.9-5.6 5.9-9.3c2-3.7 1-7-0.5-9.8-1.4-2.8-12.5-30.1-17.1-41.2-4.5-10.8-9.1-9.3-12.5-9.5-3.2-.2-6.9-.2-10.6-.2s-9.8 1.4-14.9 7c-5.1 5.6-19.5 19-19.5 46.3s20 53.7 22.8 57.4c2.8 3.7 39.3 60.2 95.2 84.3 13.3 5.8 23.6 9.3 31.7 11.9 13.3 4.2 25.4 3.6 35 2.2 10.7-1.6 32.6-13.3 37.2-26.2 4.6-12.8 4.6-23.8 3.2-26.2-1.3-2.3-5-3.7-10.5-6.5z"/></svg>